<svg width="25" height="25" viewBox="0 0 25 25" fill="none" xmlns="http://www.w3.org/2000/svg">
<path d="M21.7304 5.99867C21.7458 6.26193 21.7458 6.52524 21.7458 6.78849C21.7458 14.8181 16.7512 24.07 7.62256 24.07C4.8102 24.07 2.19764 23.0733 0 21.3433C0.399584 21.3997 0.783747 21.4185 1.19871 21.4185C3.51925 21.4185 5.65544 20.4595 7.3613 18.8235C5.17903 18.7671 3.35023 17.0183 2.72012 14.6112C3.02751 14.6676 3.33485 14.7052 3.65761 14.7052C4.10327 14.7052 4.54898 14.63 4.96389 14.4984C2.68942 13.9342 0.983516 11.4897 0.983516 8.53732V8.46213C1.64432 8.91344 2.41279 9.19551 3.22723 9.23307C1.89021 8.14238 1.01426 6.28074 1.01426 4.1746C1.01426 3.04634 1.26011 2.01208 1.69044 1.10945C4.13397 4.79516 7.80696 7.20212 11.9256 7.46543C11.8487 7.01412 11.8026 6.54405 11.8026 6.07392C11.8026 2.72665 14.0156 0 16.7665 0C18.1957 0 19.4866 0.733381 20.3934 1.91808C21.5152 1.65482 22.591 1.14707 23.5438 0.451316C23.1749 1.8617 22.3912 3.0464 21.3616 3.79853C22.3605 3.66696 23.3287 3.3284 24.22 2.85833C23.5439 4.06178 22.6986 5.13361 21.7304 5.99867Z" fill="#303030"/>
</svg>
