<svg width="25" height="25" viewBox="0 0 25 25" fill="none" xmlns="http://www.w3.org/2000/svg">
<path d="M12.1127 5.86376C8.67624 5.86376 5.90438 8.61906 5.90438 12.035C5.90438 15.4509 8.67624 18.2062 12.1127 18.2062C15.5492 18.2062 18.321 15.4509 18.321 12.035C18.321 8.61906 15.5492 5.86376 12.1127 5.86376ZM12.1127 16.0471C9.89197 16.0471 8.07648 14.2478 8.07648 12.035C8.07648 9.82216 9.88657 8.02289 12.1127 8.02289C14.3388 8.02289 16.1489 9.82216 16.1489 12.035C16.1489 14.2478 14.3334 16.0471 12.1127 16.0471ZM20.023 5.61132C20.023 6.41159 19.3747 7.05074 18.575 7.05074C17.7699 7.05074 17.1269 6.40622 17.1269 5.61132C17.1269 4.81642 17.7753 4.1719 18.575 4.1719C19.3747 4.1719 20.023 4.81642 20.023 5.61132ZM24.1349 7.07222C24.043 5.14405 23.6 3.43608 22.1789 2.02888C20.7633 0.62169 19.0451 0.18127 17.1053 0.0845928C15.1061 -0.0281976 9.11391 -0.0281976 7.11471 0.0845928C5.18035 0.175899 3.46212 0.616319 2.04107 2.02351C0.620021 3.43071 0.182359 5.13868 0.0851009 7.06685C-0.028367 9.05411 -0.028367 15.0105 0.0851009 16.9978C0.176956 18.926 0.620021 20.6339 2.04107 22.0411C3.46212 23.4483 5.17495 23.8887 7.11471 23.9854C9.11391 24.0982 15.1061 24.0982 17.1053 23.9854C19.0451 23.8941 20.7633 23.4537 22.1789 22.0411C23.5946 20.6339 24.0376 18.926 24.1349 16.9978C24.2484 15.0105 24.2484 9.05948 24.1349 7.07222ZM21.5522 19.1301C21.1307 20.1828 20.3148 20.9938 19.2504 21.4181C17.6564 22.0465 13.8742 21.9015 12.1127 21.9015C10.3512 21.9015 6.56358 22.0411 4.97503 21.4181C3.91599 20.9991 3.10011 20.1881 2.67325 19.1301C2.04107 17.5456 2.18696 13.7859 2.18696 12.035C2.18696 10.2841 2.04648 6.51901 2.67325 4.93995C3.0947 3.88724 3.91059 3.07622 4.97503 2.65192C6.56898 2.02351 10.3512 2.16853 12.1127 2.16853C13.8742 2.16853 17.6618 2.02888 19.2504 2.65192C20.3094 3.07085 21.1253 3.88187 21.5522 4.93995C22.1843 6.52439 22.0384 10.2841 22.0384 12.035C22.0384 13.7859 22.1843 17.551 21.5522 19.1301Z" fill="#303030"/>
</svg>
