<svg width="140" height="140" viewBox="0 0 140 140" fill="none" xmlns="http://www.w3.org/2000/svg">
<circle cx="70" cy="70" r="70" fill="#FF9F0D"/>
<path d="M102.666 107.331C94.2314 107.331 85.8487 105.257 77.5179 101.109C69.187 96.9604 61.7031 91.5678 55.066 84.9307C48.429 78.2937 43.0364 70.8097 38.8882 62.4789C34.7401 54.148 32.666 45.7653 32.666 37.3307C32.666 36.0171 33.1154 34.911 34.0142 34.0122C34.9129 33.1134 36.0191 32.6641 37.3327 32.6641H51.8512C52.8191 32.6641 53.666 32.9925 54.3919 33.6492C55.1179 34.306 55.5845 35.1875 55.7919 36.2937L58.5919 49.3604C58.7302 50.3283 58.7129 51.2097 58.5401 52.0048C58.3673 52.7999 58.0043 53.4739 57.4512 54.027L47.0808 64.5011C50.9524 70.9307 55.2907 76.5307 60.0956 81.3011C64.9006 86.0715 70.345 90.1159 76.429 93.4344L86.2808 83.2715C86.9722 82.511 87.7672 81.9752 88.666 81.6641C89.5648 81.353 90.4635 81.3011 91.3623 81.5085L103.703 84.2048C104.74 84.4122 105.604 84.9307 106.296 85.7604C106.987 86.59 107.333 87.5579 107.333 88.6641V102.664C107.333 103.978 106.883 105.084 105.985 105.983C105.086 106.881 103.98 107.331 102.666 107.331ZM43.9697 58.7974L52.3697 50.2937L49.9845 38.8863H38.8882C38.8882 41.5826 39.3031 44.5381 40.1327 47.753C40.9623 50.9678 42.2413 54.6492 43.9697 58.7974ZM82.2364 96.4418C85.071 97.7554 88.1475 98.827 91.466 99.6567C94.7845 100.486 97.9993 100.97 101.11 101.109V90.0122L90.429 87.8344L82.2364 96.4418Z" fill="white"/>
</svg>
