<svg width="25" height="25" viewBox="0 0 25 25" fill="none" xmlns="http://www.w3.org/2000/svg">
<path d="M22.49 0H1.72459C0.773094 0 0 0.779052 0 1.7354V22.3346C0 23.2909 0.773094 24.07 1.72459 24.07H22.49C23.4415 24.07 24.22 23.2909 24.22 22.3346V1.7354C24.22 0.779052 23.4415 0 22.49 0ZM7.32006 20.6314H3.73031V9.14445H7.32547V20.6314H7.32006ZM5.52519 7.5756C4.37366 7.5756 3.44378 6.64611 3.44378 5.50709C3.44378 4.36806 4.37366 3.43857 5.52519 3.43857C6.67131 3.43857 7.60659 4.36806 7.60659 5.50709C7.60659 6.65149 6.67672 7.5756 5.52519 7.5756ZM20.7762 20.6314H17.1865V15.0438C17.1865 13.7113 17.1594 11.9974 15.3213 11.9974C13.4507 11.9974 13.1642 13.448 13.1642 14.947V20.6314H9.57447V9.14445H13.0182V10.7133H13.0669C13.5481 9.81067 14.7212 8.85969 16.4674 8.85969C20.1004 8.85969 20.7762 11.2398 20.7762 14.3345V20.6314Z" fill="#303030"/>
</svg>
